<?xml version="1.0" encoding="UTF-8"?>
<!DOCTYPE svg PUBLIC "-//W3C//DTD SVG 1.1//EN" "http://www.w3.org/Graphics/SVG/1.1/DTD/svg11.dtd">
<!-- Creator: CorelDRAW X8 -->
<svg xmlns="http://www.w3.org/2000/svg" xml:space="preserve" width="132.017mm" height="130.458mm" version="1.1" style="shape-rendering:geometricPrecision; text-rendering:geometricPrecision; image-rendering:optimizeQuality; fill-rule:evenodd; clip-rule:evenodd"
viewBox="0 0 13172 13016"
 xmlns:xlink="http://www.w3.org/1999/xlink">
 <defs>
  <style type="text/css">
   <![CDATA[
    .fil0 {fill:#005EC4;fill-rule:nonzero}
   ]]>
  </style>
 </defs>
 <g id="__x0023_Layer_x0020_1">
  <metadata id="CorelCorpID_0Corel-Layer"/>
  <g id="_1668394472320">
  </g>
  <g id="_1668394474496">
  </g>
  <g id="_1668394456352">
  </g>
  <g id="_1668394458912">
  </g>
  <g id="_1668394459168">
  </g>
  <g id="_1668394458848">
  </g>
  <g id="_1668394459104">
  </g>
  <g id="_1668394462080">
  </g>
  <g id="_1668394461824">
  </g>
  <g id="_1668394462976">
  </g>
  <g id="_1668394463328">
  </g>
  <g id="_1668394464224">
  </g>
  <g id="_1668394464640">
  </g>
  <g id="_1668394464384">
  </g>
  <g id="_1668394463584">
  </g>
  <path class="fil0" d="M8776 7053c0,777 -315,1481 -824,1990 -509,509 -1212,824 -1989,824 -776,0 -1480,-315 -1989,-824 -509,-509 -824,-1213 -824,-1990 0,-776 315,-1480 824,-1989 509,-509 1213,-824 1989,-824 777,0 1480,315 1989,824l0 1c509,509 824,1212 824,1988zm-1080 1733c443,-443 717,-1056 717,-1733 0,-677 -274,-1289 -717,-1733l0 1c-444,-444 -1056,-718 -1733,-718 -676,0 -1289,274 -1732,718 -444,443 -718,1056 -718,1732 0,677 274,1290 718,1733 443,443 1056,718 1732,718 677,0 1289,-275 1733,-718z"/>
  <path class="fil0" d="M8826 7053c0,388 -77,758 -217,1095 -145,351 -358,666 -621,930 -264,264 -580,476 -930,622 -338,139 -707,216 -1095,216 -387,0 -757,-77 -1094,-217 -351,-145 -666,-357 -930,-621 -264,-264 -477,-579 -622,-930 -140,-337 -217,-707 -217,-1095 0,-387 77,-757 217,-1094 145,-351 358,-666 622,-930 264,-264 579,-477 930,-622 337,-140 707,-217 1094,-217 388,0 757,77 1095,217 350,145 666,358 929,622l15 14 0 1c257,261 465,571 607,915 140,338 217,707 217,1094zm-309 1057c135,-325 209,-682 209,-1057 0,-374 -74,-731 -209,-1056 -140,-338 -345,-642 -600,-897l-15 -15 0 0c-252,-248 -551,-449 -882,-586 -325,-135 -682,-209 -1057,-209 -374,0 -731,74 -1057,209 -337,140 -642,345 -897,600 -255,255 -460,560 -600,898 -135,325 -209,682 -209,1056 0,375 74,732 209,1057 140,338 345,642 600,897 255,255 560,461 897,601 326,134 683,209 1057,209 375,0 732,-75 1057,-209 338,-140 642,-346 897,-601 255,-255 460,-559 600,-897zm-857 641c222,-222 400,-486 522,-779 117,-283 181,-593 181,-919 0,-325 -64,-635 -181,-918 -116,-278 -282,-530 -487,-744l-35 -35c-221,-221 -485,-400 -779,-521 -282,-117 -592,-182 -918,-182 -325,0 -635,65 -918,182 -293,121 -558,300 -779,521 -221,222 -400,486 -521,779 -117,283 -182,593 -182,918 0,326 65,636 182,919 121,293 300,557 521,779 221,221 486,399 779,521 283,117 593,182 918,182 326,0 636,-65 918,-182 294,-122 558,-300 779,-521zm614 -742c-127,307 -313,582 -543,812 -230,230 -506,416 -812,543 -295,122 -617,189 -956,189 -338,0 -661,-67 -956,-189 -306,-127 -581,-313 -812,-543 -230,-230 -415,-505 -542,-812 -122,-294 -190,-617 -190,-956 0,-338 68,-661 190,-956 127,-306 312,-581 542,-811 231,-231 506,-416 812,-543 295,-122 618,-190 956,-190 339,0 661,68 956,190 291,120 554,294 777,508l0 0 35 34c230,231 416,506 543,812 122,295 189,618 189,956 0,339 -67,662 -189,956z"/>
  <path class="fil0" d="M10350 7140c0,1212 -491,2308 -1285,3102 -794,794 -1890,1285 -3102,1285 -1211,0 -2308,-491 -3102,-1285 -794,-794 -1285,-1890 -1285,-3102 0,-1211 491,-2308 1285,-3102 794,-794 1891,-1285 3102,-1285 1212,0 2308,491 3102,1285 794,794 1285,1891 1285,3102zm-1541 2846c728,-729 1178,-1735 1178,-2846 0,-1111 -450,-2117 -1178,-2846 -729,-728 -1735,-1178 -2846,-1178 -1111,0 -2117,450 -2845,1179 -728,728 -1179,1734 -1179,2845 0,1111 451,2117 1179,2846 728,728 1734,1178 2845,1178 1111,0 2117,-450 2846,-1178z"/>
  <path class="fil0" d="M10400 7140c0,601 -119,1174 -336,1697 -225,543 -555,1032 -963,1441 -409,408 -898,738 -1441,963 -523,217 -1096,336 -1697,336 -601,0 -1174,-119 -1696,-336 -544,-225 -1032,-555 -1441,-963 -409,-409 -739,-898 -964,-1441 -216,-523 -336,-1096 -336,-1697 0,-601 120,-1174 336,-1697 225,-543 555,-1031 964,-1440 409,-409 897,-739 1441,-964 522,-216 1096,-336 1696,-336 601,0 1174,120 1697,336 543,225 1032,555 1441,964 408,408 738,897 963,1440 217,523 336,1096 336,1697zm-428 1659c212,-511 328,-1071 328,-1659 0,-588 -116,-1148 -328,-1659 -220,-530 -542,-1008 -942,-1408 -400,-400 -878,-722 -1408,-942 -511,-211 -1071,-328 -1659,-328 -588,0 -1148,117 -1659,328 -530,220 -1008,542 -1408,942 -400,400 -722,878 -942,1408 -211,511 -328,1071 -328,1659 0,588 117,1148 328,1659 220,530 542,1008 942,1408 400,400 878,722 1408,942 511,212 1071,328 1659,328 588,0 1148,-116 1659,-328 530,-220 1008,-542 1408,-942 400,-400 722,-878 942,-1408zm-1199 1151c367,-366 662,-804 863,-1290 194,-468 301,-981 301,-1520 0,-539 -107,-1052 -301,-1520 -201,-486 -496,-924 -863,-1290 -366,-367 -804,-662 -1290,-863 -468,-194 -981,-301 -1520,-301 -538,0 -1052,107 -1520,301 -486,201 -923,496 -1290,863 -367,366 -662,804 -863,1290 -194,468 -301,981 -301,1520 0,539 107,1052 301,1520 201,486 496,924 863,1290 367,367 804,662 1290,864 468,193 981,300 1520,300 539,0 1052,-107 1520,-300 486,-202 924,-497 1290,-864zm955 -1252c-206,499 -509,948 -884,1323 -375,375 -824,678 -1323,884 -480,199 -1006,309 -1558,309 -551,0 -1078,-110 -1558,-309 -499,-206 -947,-509 -1323,-884 -375,-375 -678,-824 -884,-1323 -199,-480 -309,-1006 -309,-1558 0,-551 110,-1078 309,-1558 206,-499 509,-947 884,-1323 376,-375 824,-678 1323,-884 480,-199 1007,-309 1558,-309 552,0 1078,110 1558,309 499,206 948,509 1323,884 375,376 678,824 884,1323 199,480 309,1007 309,1558 0,552 -110,1078 -309,1558z"/>
  <path class="fil0" d="M11876 7053c0,1633 -661,3111 -1732,4181 -1070,1071 -2548,1732 -4181,1732 -1633,0 -3111,-661 -4181,-1732 -1070,-1070 -1732,-2548 -1732,-4181 0,-1633 662,-3111 1732,-4181 1070,-1070 2548,-1732 4181,-1732 1633,0 3111,662 4181,1732 1071,1070 1732,2548 1732,4181zm-1988 3925c1004,-1004 1625,-2392 1625,-3925 0,-1532 -621,-2920 -1625,-3924 -1005,-1005 -2392,-1626 -3925,-1626 -1533,0 -2920,621 -3925,1626 -1004,1004 -1625,2392 -1625,3924 0,1533 621,2920 1625,3925 1005,1004 2392,1625 3925,1625 1533,0 2920,-621 3925,-1625z"/>
  <path class="fil0" d="M11926 7053c0,808 -160,1578 -451,2280 -303,730 -746,1387 -1295,1937 -550,549 -1207,992 -1937,1295 -702,291 -1473,451 -2280,451 -807,0 -1577,-160 -2280,-451 -730,-303 -1387,-746 -1936,-1295 -550,-550 -993,-1207 -1295,-1937 -291,-702 -452,-1472 -452,-2280 0,-807 161,-1577 452,-2280 302,-730 745,-1387 1295,-1936 549,-550 1206,-993 1936,-1295 703,-291 1473,-452 2280,-452 807,0 1578,161 2280,452 730,302 1387,745 1937,1295 549,549 992,1206 1295,1936 291,703 451,1473 451,2280zm-543 2243c286,-691 443,-1448 443,-2243 0,-794 -157,-1552 -443,-2242 -297,-717 -733,-1363 -1274,-1904 -541,-540 -1186,-976 -1904,-1273 -690,-286 -1447,-444 -2242,-444 -794,0 -1552,158 -2242,444 -717,297 -1363,733 -1904,1273 -541,541 -976,1187 -1273,1904 -286,690 -444,1448 -444,2242 0,795 158,1552 444,2243 297,717 732,1362 1273,1903 541,541 1187,977 1904,1274 690,286 1448,444 2242,444 795,0 1552,-158 2242,-444 718,-297 1363,-733 1904,-1274 541,-541 977,-1186 1274,-1903zm-1531 1647c508,-508 916,-1113 1195,-1786 268,-648 416,-1358 416,-2104 0,-745 -148,-1456 -416,-2103 -279,-673 -687,-1279 -1195,-1786 -507,-507 -1113,-916 -1785,-1195 -648,-268 -1359,-416 -2104,-416 -745,0 -1456,148 -2104,416 -672,279 -1278,688 -1785,1195 -508,507 -916,1113 -1195,1786 -268,647 -416,1358 -416,2103 0,746 148,1456 416,2104 279,673 687,1278 1195,1786 507,507 1113,915 1785,1194 648,268 1359,416 2104,416 745,0 1456,-148 2104,-416 672,-279 1278,-687 1785,-1194zm1287 -1748c-284,685 -700,1302 -1216,1818 -516,516 -1133,932 -1818,1216 -660,273 -1384,424 -2142,424 -758,0 -1481,-151 -2141,-424 -686,-284 -1303,-700 -1819,-1216 -516,-516 -932,-1133 -1216,-1818 -273,-660 -424,-1384 -424,-2142 0,-758 151,-1481 424,-2141 284,-686 700,-1302 1216,-1819 516,-516 1133,-932 1819,-1216 660,-273 1383,-424 2141,-424 758,0 1482,151 2142,424 685,284 1302,700 1818,1216 516,516 932,1133 1216,1819 273,660 424,1383 424,2141 0,758 -151,1482 -424,2142z"/>
  <path class="fil0" d="M13172 5740c-529,-2892 -2532,-5002 -5345,-5740l33 890c2288,698 3907,2450 4469,4753l843 97z"/>
  <path class="fil0" d="M7071 7053c0,612 -497,1107 -1108,1107 -611,0 -1107,-495 -1107,-1107 0,-611 496,-1107 1107,-1107 611,0 1108,496 1108,1107z"/>
  <path class="fil0" d="M10115 6319c-383,-1556 -1574,-2823 -3097,-3285l26 817c1246,432 1921,1336 2190,2365l881 103z"/>
  <path class="fil0" d="M7449 2327c1680,565 2869,1851 3295,3590l878 109c-438,-2246 -1999,-3931 -4175,-4543l2 844z"/>
 </g>
</svg>
