<?xml version="1.0" encoding="UTF-8"?>
<!DOCTYPE svg PUBLIC "-//W3C//DTD SVG 1.1//EN" "http://www.w3.org/Graphics/SVG/1.1/DTD/svg11.dtd">
<!-- Creator: CorelDRAW X8 -->
<svg xmlns="http://www.w3.org/2000/svg" xml:space="preserve" width="39.2158mm" height="7.1011mm" version="1.1" style="shape-rendering:geometricPrecision; text-rendering:geometricPrecision; image-rendering:optimizeQuality; fill-rule:evenodd; clip-rule:evenodd"
viewBox="0 0 4005 725"
 xmlns:xlink="http://www.w3.org/1999/xlink">
 <defs>
  <style type="text/css">
   <![CDATA[
    .fil0 {fill:#FEFEFE;fill-rule:nonzero}
   ]]>
  </style>
 </defs>
 <g id="__x0023_Layer_x0020_1">
  <metadata id="CorelCorpID_0Corel-Layer"/>
  <path class="fil0" d="M0 554l0 -384c0,-9 7,-16 16,-16l75 0c9,0 16,7 16,16l0 11c4,-3 9,-7 13,-10 11,-7 22,-13 34,-16 12,-4 24,-6 37,-6 19,0 37,3 53,8 16,6 30,15 43,26 5,6 6,15 2,21l-50 67c-5,7 -15,8 -22,3l-2 -3c-6,-6 -12,-10 -20,-14 -8,-3 -17,-4 -29,-4 -10,0 -19,1 -26,4 -7,2 -13,6 -18,10l0 1c-5,5 -9,10 -11,17 -3,7 -4,16 -4,25l0 244c0,8 -7,15 -16,15l-75 0c-9,0 -16,-7 -16,-15zm32 -368l0 352 43 0 0 -226 -7 -73c-1,-3 0,-6 2,-9l5 -10 0 -34 -43 0zm75 43l0 10c6,-5 14,-9 22,-12 11,-4 24,-6 37,-6 16,0 29,2 41,7 7,3 12,6 18,10l29 -40c-6,-5 -13,-8 -21,-11 -12,-4 -26,-6 -42,-6 -10,0 -19,1 -28,4 -8,2 -17,7 -25,12 -8,6 -16,13 -23,20 -3,4 -5,8 -8,12zm432 289l0 -15c-8,4 -18,6 -30,8 -12,2 -25,2 -40,2 -14,0 -26,-1 -37,-3l0 0c-12,-3 -22,-8 -30,-13 -9,-7 -16,-15 -20,-25 -5,-9 -7,-20 -7,-32 0,-10 2,-20 5,-29 3,-9 9,-16 15,-23 7,-5 15,-10 25,-13 9,-2 19,-4 30,-4l89 0 0 -28 -90 0c-20,0 -37,2 -52,6 -14,4 -25,10 -34,18 -9,8 -16,17 -20,29 -5,13 -7,27 -7,44 0,18 2,33 7,46l1 1c5,12 12,23 22,31 9,8 22,14 37,18l1 0c16,5 35,7 57,7 7,0 14,0 20,-1l1 0c6,-1 12,-2 17,-3l1 -1c6,-1 11,-3 16,-5 5,-2 9,-4 13,-7 4,-2 7,-5 10,-8zm0 -58l0 -57 -89 0c-8,0 -15,1 -21,3 -5,1 -10,3 -13,6 -3,3 -5,6 -6,10 -2,5 -3,11 -3,18 0,8 1,14 3,19 3,5 6,9 10,12 5,3 11,6 19,8l0 0c9,2 19,3 30,3 14,0 26,-1 36,-2 9,-2 16,-4 22,-6l1 0c4,-2 7,-4 9,-7l0 0c2,-2 2,-4 2,-7zm0 -149c0,-11 -1,-20 -4,-29l0 -1c-3,-7 -7,-13 -11,-18l-1 0c-5,-5 -11,-9 -18,-12 -7,-2 -17,-4 -27,-4 -15,0 -28,2 -40,6 -13,4 -24,10 -35,18 -5,4 -12,4 -18,0l-55 -38c-7,-5 -9,-14 -4,-22l1 -1c8,-10 17,-18 28,-26 11,-7 22,-14 35,-19 13,-5 27,-9 41,-12 15,-3 29,-4 45,-4 25,0 48,3 69,10 20,7 38,18 53,32 15,14 26,31 34,51 7,19 11,41 11,65l0 247c0,8 -8,15 -16,15l-72 0c-8,0 -14,-5 -15,-12 -4,2 -8,4 -11,5 -7,3 -14,5 -21,7l-1 0c-6,2 -14,3 -21,4l-1 0c-8,1 -16,2 -24,2 -25,0 -47,-3 -66,-8l0 0c-20,-6 -36,-14 -50,-25 -13,-12 -24,-26 -31,-43l0 -1c-6,-17 -10,-36 -10,-58 0,-20 3,-39 9,-55 7,-17 16,-31 29,-42 12,-11 28,-19 46,-24 18,-6 38,-8 61,-8l90 0zm32 0l0 6c2,3 3,6 3,9l5 60c1,6 -3,12 -8,15l0 58 7 52c1,4 0,8 -2,12l-5 6 0 9 40 0 0 -231c0,-20 -3,-39 -9,-54 -6,-16 -14,-29 -26,-39 -11,-11 -25,-19 -41,-25 -17,-6 -37,-8 -59,-8 -14,0 -27,1 -39,3 -12,2 -24,6 -35,10 -10,4 -20,10 -29,16 -3,2 -6,5 -10,8l31 21c11,-7 22,-12 34,-16 16,-5 32,-7 50,-7 14,0 27,2 38,6 11,4 21,10 30,18l0 1c8,9 14,18 18,30l1 1c4,12 6,24 6,39zm372 243l0 -7 -5 4c-10,8 -21,14 -34,18 -12,4 -26,6 -41,6 -23,0 -44,-4 -63,-12 -18,-7 -34,-19 -47,-34l-1 -1c-12,-15 -22,-33 -28,-54l-1 0c-6,-21 -9,-44 -9,-70l0 -84c0,-26 3,-49 9,-70 7,-21 16,-40 28,-55 13,-15 29,-27 47,-35 18,-7 38,-11 61,-11 26,0 49,7 71,20 4,3 9,6 13,10l0 -162c0,-9 7,-16 16,-16l75 0c9,0 16,7 16,16l0 537c0,8 -7,15 -16,15l-75 0c-9,0 -16,-7 -16,-15zm0 -55l0 -12c-3,3 -7,5 -11,7 -7,4 -14,7 -22,9 -8,2 -17,3 -26,3 -15,0 -28,-2 -39,-7 -12,-4 -22,-11 -31,-21l0 0c-8,-9 -14,-20 -18,-33 -4,-12 -6,-26 -6,-41l0 -83c0,-15 2,-29 5,-41 5,-13 11,-24 19,-34 8,-9 18,-16 30,-21l1 0c11,-5 24,-7 39,-7 9,0 17,1 25,3 8,1 16,4 22,8l1 0c4,2 8,5 11,7l0 -11c-2,-4 -5,-7 -8,-10 -6,-8 -14,-14 -22,-19 -16,-10 -34,-15 -54,-15 -19,0 -35,3 -49,8 -13,6 -25,15 -34,27 -10,11 -17,26 -22,43 -5,17 -8,38 -8,61l0 84c0,23 2,43 8,60l0 1c5,17 12,31 22,43l1 0c9,12 21,20 35,26 15,6 32,9 51,9 12,0 22,-1 32,-4 9,-3 16,-7 23,-12l1 -1c7,-6 13,-12 18,-19l6 -8zm0 -87l0 -103c0,-6 -1,-12 -2,-17 -1,-6 -3,-11 -5,-15 -4,-9 -11,-16 -19,-20l-1 -1c-4,-2 -8,-4 -13,-5 -6,-1 -12,-2 -19,-2 -11,0 -20,2 -28,5l0 0c-7,3 -13,8 -18,13 -6,6 -10,13 -12,22 -3,9 -5,20 -5,32l0 83c0,12 2,23 5,32 2,8 6,15 12,21 5,6 11,10 18,13 8,3 17,4 28,4 7,0 13,0 18,-2 6,-1 11,-3 15,-5 4,-3 8,-5 11,-9 3,-3 6,-7 8,-11l1 -1c2,-5 3,-9 4,-15 1,-5 2,-12 2,-19zm32 -380l0 183 6 10c1,3 2,6 1,9l-7 77c0,65 1,116 5,180 0,2 0,5 -1,7l-4 9 0 31 44 0 0 -506 -44 0zm378 486l0 -15c-8,4 -18,6 -30,8 -12,2 -25,2 -40,2 -14,0 -26,-1 -37,-3 -12,-3 -22,-8 -30,-13 -9,-6 -16,-14 -20,-24l0 -1c-5,-9 -7,-20 -7,-32 0,-10 2,-20 5,-29 3,-8 8,-15 14,-21l1 -2c7,-5 15,-10 25,-13 9,-2 19,-4 30,-4l89 0 0 -28 -90 0c-20,0 -37,2 -52,6 -14,4 -25,10 -34,18 -9,8 -16,17 -20,29 -5,13 -7,27 -7,44 0,18 2,33 7,46l1 1c5,12 12,23 22,31 9,8 22,14 37,18l1 0c16,5 35,7 57,7 7,0 14,0 20,-1l1 0c6,-1 12,-2 17,-3l1 -1c6,-1 11,-3 16,-5 5,-2 9,-4 13,-7 4,-2 7,-5 10,-8zm0 -58l0 -57 -89 0c-8,0 -15,1 -21,3 -5,1 -10,3 -13,6l0 1c-3,2 -5,5 -6,9 -2,5 -3,11 -3,18 0,8 1,14 3,19l1 1c2,5 5,8 9,11 4,3 11,6 19,8 8,2 18,3 30,3 14,0 26,-1 36,-2 9,-2 16,-4 22,-6l1 0c4,-2 7,-4 9,-7l0 0c2,-2 2,-4 2,-7zm0 -149c0,-11 -1,-21 -4,-29 -3,-7 -6,-14 -12,-19l0 0c-5,-5 -11,-9 -18,-12 -7,-2 -17,-4 -27,-4 -15,0 -28,2 -40,6l-1 0c-12,4 -23,10 -34,18 -5,4 -13,4 -18,0l-55 -38c-7,-5 -9,-14 -4,-22l1 -1c8,-10 17,-18 28,-26 11,-7 22,-14 35,-19 13,-5 27,-9 41,-12 14,-3 29,-4 45,-4 25,0 48,3 68,10 21,7 39,18 54,32 15,14 26,31 34,51 7,19 11,41 11,65l0 247c0,8 -8,15 -16,15l-72 0c-8,0 -14,-5 -15,-12 -4,2 -8,4 -12,5 -6,3 -13,5 -20,7l-1 0c-6,2 -14,3 -21,4l-1 0c-8,1 -16,2 -24,2 -25,0 -47,-3 -66,-8l0 0c-20,-6 -36,-14 -50,-25 -14,-12 -24,-26 -31,-43l0 -1c-6,-17 -10,-36 -10,-58 0,-20 3,-39 9,-55 7,-17 16,-31 29,-42 12,-11 28,-19 46,-24 18,-6 38,-8 61,-8l90 0zm32 0l0 6c2,3 3,6 3,9l5 60c1,6 -3,12 -8,15l0 58 7 52c1,4 0,8 -2,11l-5 7 0 9 40 0 0 -231c0,-20 -3,-39 -9,-54 -6,-16 -14,-29 -26,-39 -11,-11 -25,-19 -42,-25 -16,-6 -36,-8 -58,-8 -14,0 -27,1 -39,3 -12,2 -24,6 -35,10 -10,4 -20,10 -29,16 -3,2 -6,5 -10,8l31 21c10,-7 21,-12 33,-16l1 0c16,-5 32,-7 50,-7 14,0 27,2 38,6 11,4 21,10 29,18l1 1c9,9 15,19 19,31 4,12 6,25 6,39zm154 243l0 -384c0,-9 7,-16 16,-16l75 0c9,0 16,7 16,16l0 11c4,-3 9,-7 13,-10 11,-7 22,-13 34,-16 12,-4 25,-6 37,-6 20,0 37,3 53,8 16,6 31,15 43,26 6,6 6,15 2,21l-49 67c-5,7 -15,8 -22,3l-3 -3c-5,-6 -12,-10 -19,-14 -8,-3 -18,-4 -29,-4 -11,0 -19,1 -27,4 -7,2 -13,6 -18,11 -5,5 -8,10 -11,17 -2,7 -4,16 -4,25l0 244c0,8 -7,15 -16,15l-75 0c-9,0 -16,-7 -16,-15zm32 -368l0 352 44 0 0 -226 -8 -73c0,-3 0,-6 2,-9l6 -10 0 -34 -44 0zm75 43l0 10c7,-5 14,-9 22,-12 12,-4 24,-6 38,-6 15,0 29,2 41,7 6,3 12,6 17,10l29 -40c-6,-5 -13,-8 -20,-11 -13,-4 -27,-6 -43,-6 -9,0 -19,1 -27,4 -9,2 -18,7 -26,12 -8,6 -16,13 -22,20 -3,4 -6,8 -9,12zm563 325l0 -7 -4 4c-10,8 -22,14 -35,18 -12,4 -26,6 -41,6 -23,0 -44,-4 -63,-12 -18,-7 -34,-19 -47,-34l-1 -1c-12,-15 -22,-33 -28,-54l-1 0c-6,-21 -9,-44 -9,-70l0 -84c0,-26 3,-49 9,-70 7,-21 16,-40 28,-55 13,-15 29,-27 47,-35 18,-7 38,-11 61,-11 26,0 49,7 71,20 4,3 9,6 13,10l0 -162c0,-9 7,-16 16,-16l75 0c9,0 16,7 16,16l0 537c0,8 -7,15 -16,15l-75 0c-9,0 -16,-7 -16,-15zm0 -55l0 -12c-3,3 -7,5 -11,7 -7,4 -14,7 -22,9 -8,2 -17,3 -26,3 -15,0 -28,-2 -39,-7 -12,-4 -22,-11 -31,-21 -8,-9 -14,-20 -18,-33 -4,-12 -6,-26 -6,-41l0 -83c0,-15 2,-29 5,-41 5,-13 11,-24 19,-34 8,-9 18,-16 30,-21l1 0c11,-5 24,-7 39,-7 9,0 17,1 25,3 8,1 16,4 22,8l1 0c4,2 8,5 11,7l0 -11c-2,-4 -5,-7 -8,-10 -6,-8 -14,-14 -22,-19 -16,-10 -34,-15 -54,-15 -19,0 -35,3 -49,8 -13,6 -25,15 -34,27 -10,11 -17,26 -22,43 -5,17 -8,38 -8,61l0 84c0,23 2,43 8,60l0 1c5,17 12,31 22,43l1 0c9,12 21,20 35,26 15,6 32,9 51,9 12,0 22,-1 32,-4 9,-3 17,-7 24,-13 7,-6 13,-12 19,-19l5 -8zm0 -87l0 -103c0,-6 -1,-12 -2,-17 -1,-6 -3,-11 -5,-15 -2,-5 -5,-9 -8,-12 -3,-3 -7,-6 -11,-8l-1 -1c-4,-2 -8,-4 -13,-5 -6,-1 -12,-2 -19,-2 -11,0 -20,2 -28,5l0 0c-7,3 -13,8 -18,13 -6,6 -10,13 -12,22 -3,9 -5,20 -5,32l0 83c0,12 2,23 5,32 2,8 6,15 12,21 5,6 11,10 18,13 8,3 17,4 28,4 7,0 13,0 18,-2 6,-1 11,-3 15,-5 4,-3 8,-5 11,-9 3,-3 6,-7 8,-11l1 -1c2,-5 3,-9 4,-15 1,-5 2,-12 2,-19zm32 -380l0 183 6 10c1,3 2,6 1,9l-7 77c0,65 1,116 5,180 0,2 0,5 -1,7l-4 9 0 31 44 0 0 -506 -44 0zm162 59l0 -75c0,-9 7,-16 16,-16l75 0c9,0 16,7 16,16l0 75c0,9 -7,16 -16,16l-75 0c-9,0 -16,-7 -16,-16zm31 -59l0 44 44 0 0 -44 -44 0zm-31 522l0 -384c0,-9 7,-16 16,-16l75 0c9,0 16,7 16,16l0 384c0,8 -7,15 -16,15l-75 0c-9,0 -16,-7 -16,-15zm31 -368l0 352 44 0 0 -352 -44 0zm303 539c-15,0 -30,-1 -44,-4 -14,-3 -28,-7 -40,-13 -13,-6 -24,-13 -34,-22 -10,-8 -19,-18 -26,-30 -4,-6 -3,-15 3,-20l51 -46c6,-6 16,-5 22,1l1 2c9,12 19,21 30,27 11,6 23,9 36,9 12,0 24,-2 33,-6 9,-3 16,-7 23,-14 6,-6 10,-13 14,-22 3,-10 4,-21 4,-34l0 -6 -5 4c-10,8 -21,14 -33,18 -13,4 -27,6 -42,6 -23,0 -44,-4 -62,-12 -19,-7 -35,-19 -48,-34l0 -1c-13,-15 -23,-33 -29,-54 -6,-20 -9,-44 -9,-70l0 -84c0,-26 3,-49 9,-70 6,-21 15,-40 28,-55 13,-15 28,-27 46,-35 18,-7 39,-11 61,-11 26,0 50,7 71,20 5,3 9,6 13,10l0 -9c0,-9 8,-16 16,-16l76 0c8,0 16,7 16,16l0 372c0,28 -4,54 -12,76 -8,23 -20,42 -36,59 -16,16 -35,28 -58,36 -22,8 -47,12 -75,12zm-38 -35c12,2 24,4 38,4 24,0 46,-4 64,-10 18,-7 34,-17 46,-29 13,-13 23,-29 29,-47 7,-19 10,-41 10,-66l0 -356 -44 0 0 29 6 10c2,3 2,7 2,10l-8 76c0,65 1,116 5,180 0,2 0,5 -1,7l-4 9 0 46c0,16 -2,31 -7,44 -4,13 -12,25 -21,35 -10,9 -21,17 -35,21 -12,5 -27,7 -43,7 -19,0 -36,-4 -51,-12 -11,-6 -20,-14 -29,-23l-28 25c3,5 7,9 12,12 7,7 16,12 26,17 11,5 22,9 33,11zm111 -191l0 -12c-3,3 -7,5 -11,7 -6,4 -14,7 -22,9 -8,2 -17,3 -26,3 -14,0 -27,-2 -39,-7 -12,-4 -22,-11 -30,-21 -9,-9 -15,-20 -19,-33 -4,-12 -6,-26 -6,-41l0 -83c0,-15 2,-29 6,-41 4,-13 10,-24 18,-34 9,-9 18,-16 30,-21l1 0c12,-5 25,-7 39,-7 9,0 18,1 26,3 8,1 15,4 21,8l1 0c4,2 8,5 11,7l0 -11 -8 -10c-6,-8 -14,-14 -22,-19 -16,-10 -34,-15 -54,-15 -18,0 -34,3 -48,8 -14,6 -25,15 -35,27 -10,11 -17,26 -22,43 -5,17 -8,38 -8,61l0 84c0,23 3,43 8,61 5,17 13,31 23,43l0 0c10,12 22,20 36,26 14,6 31,9 50,9 12,0 23,-1 32,-4 9,-3 17,-7 23,-12l1 -1c7,-6 14,-12 19,-19l5 -8zm0 -87l0 -103c0,-6 0,-12 -1,-17 -1,-6 -3,-11 -6,-15 -2,-5 -5,-9 -8,-12 -3,-3 -7,-6 -11,-8l-1 -1c-4,-2 -8,-4 -13,-5 -6,-1 -12,-2 -19,-2 -10,0 -20,2 -27,5l-1 0c-7,3 -13,8 -18,13 -5,6 -9,13 -12,22 -3,9 -4,20 -4,32l0 83c0,12 1,23 4,32 3,8 7,15 12,21 5,6 11,10 19,13 7,3 16,4 27,4 7,0 13,0 19,-2 5,-1 10,-3 14,-5 4,-3 8,-5 11,-9 3,-3 6,-7 8,-11l1 -1c2,-5 4,-9 5,-15 1,-5 1,-12 1,-19zm190 -321l0 -75c0,-9 7,-16 16,-16l75 0c9,0 16,7 16,16l0 75c0,9 -7,16 -16,16l-75 0c-9,0 -16,-7 -16,-16zm32 -59l0 44 44 0 0 -44 -44 0zm-32 522l0 -384c0,-9 7,-16 16,-16l75 0c9,0 16,7 16,16l0 384c0,8 -7,15 -16,15l-75 0c-9,0 -16,-7 -16,-15zm32 -368l0 352 44 0 0 -352 -44 0zm274 383c-18,0 -33,-2 -47,-7 -14,-6 -25,-14 -34,-25 -9,-10 -15,-23 -19,-37 -4,-14 -6,-30 -6,-48l0 -198 -24 0c-8,0 -15,-7 -15,-16l0 -68c0,-9 7,-16 15,-16l24 0 0 -95c0,-9 7,-16 16,-16l75 0c9,0 16,7 16,16l0 95 42 0c9,0 16,7 16,16l0 68c0,9 -7,16 -16,16l-42 0 0 199c0,3 0,6 1,8 0,2 1,3 1,4l1 0 3 1 36 0c9,0 16,7 16,16l0 72c0,8 -7,15 -16,15l-43 0zm-35 -37c9,4 21,6 35,6l27 0 0 -40 -20 0c-6,0 -11,-2 -16,-4 -5,-2 -10,-6 -13,-11 -3,-4 -5,-9 -7,-14 -1,-5 -1,-11 -1,-16l0 -199 -44 0 0 198c0,15 1,28 4,39 3,11 8,19 13,26 6,7 13,12 22,15zm-71 -310l0 -36 -8 0 0 36 8 0zm32 -147l0 79 44 0 0 -79 -44 0zm0 111l0 36 44 0 0 -36 -44 0zm75 0l0 36 26 0 0 -36 -26 0zm346 332l0 -15c-8,4 -18,6 -30,8 -12,2 -25,2 -40,2 -14,0 -26,-1 -37,-3 -12,-3 -22,-8 -30,-13 -9,-7 -16,-15 -20,-24 -5,-10 -7,-21 -7,-33 0,-10 2,-20 5,-29 3,-8 8,-15 14,-21l1 -2c7,-5 15,-10 25,-13 9,-2 19,-4 30,-4l89 0 0 -28 -89 0c-21,0 -38,2 -53,6 -14,4 -25,10 -34,18 -9,8 -16,17 -20,29 -5,13 -7,27 -7,44 0,18 3,33 7,46l1 1c5,12 12,23 22,31 10,8 22,14 38,18 16,5 35,7 57,7 7,0 14,0 20,-1l1 0c6,-1 12,-2 17,-3l1 -1c6,-1 11,-3 16,-5 5,-2 9,-4 13,-7 4,-2 7,-5 10,-8zm0 -58l0 -57 -89 0c-8,0 -15,1 -21,3 -5,1 -9,3 -13,6l0 1c-3,2 -5,5 -6,9 -2,5 -3,11 -3,18 0,8 1,14 3,20 3,4 6,8 10,11 5,3 11,6 19,8 8,2 19,3 30,3 14,0 26,-1 36,-2 9,-2 17,-4 22,-6 5,-2 8,-4 10,-7l0 0c2,-2 2,-4 2,-7zm0 -149c0,-11 -1,-21 -4,-29 -2,-7 -6,-14 -11,-19l-1 0c-5,-5 -11,-9 -18,-12 -7,-2 -17,-4 -27,-4 -15,0 -28,2 -40,6 -13,4 -24,10 -35,18 -5,4 -12,4 -18,0l-55 -38c-7,-5 -9,-14 -4,-22l1 -1c8,-10 17,-18 28,-26 11,-7 23,-14 35,-19 13,-5 27,-9 41,-12 15,-3 29,-4 45,-4 25,0 48,3 69,10 20,7 38,18 53,32 15,14 26,31 34,51 7,19 11,41 11,65l0 247c0,8 -8,15 -16,15l-72 0c-8,0 -14,-5 -15,-12 -4,2 -8,4 -11,5 -7,3 -14,5 -21,7l0 0c-7,2 -15,3 -22,4l-1 0c-8,1 -16,2 -24,2 -25,0 -47,-3 -66,-8 -19,-6 -36,-14 -50,-25 -13,-12 -24,-26 -31,-43l0 -1c-6,-17 -10,-36 -10,-58 0,-20 3,-39 9,-55 7,-17 16,-31 29,-42 12,-11 28,-19 46,-24 18,-6 38,-8 62,-8l89 0zm32 0l0 6c2,3 3,6 3,9l5 60c1,6 -3,12 -8,15l0 58 7 52c1,4 0,8 -2,11l-5 7 0 9 40 0 0 -231c0,-20 -3,-39 -9,-54 -6,-16 -14,-29 -26,-39 -11,-11 -25,-19 -41,-25 -17,-6 -37,-8 -59,-8 -14,0 -27,1 -39,3 -12,2 -24,6 -35,10 -10,4 -20,10 -29,16 -3,2 -6,5 -10,8l31 21c11,-7 22,-12 34,-16 16,-5 32,-7 50,-7 14,0 27,2 38,6 11,4 21,10 30,18l0 1c9,9 15,19 19,31 4,12 6,25 6,39zm261 -294l0 436c0,3 1,5 1,7l2 4 1 1c1,1 2,1 4,1l35 0c9,0 16,7 16,16l0 72c0,8 -7,15 -16,15l-44 0c-16,0 -31,-2 -44,-7 -13,-6 -25,-14 -34,-24l-1 -2c-9,-10 -16,-22 -20,-36 -4,-14 -7,-30 -7,-48l0 -435c0,-9 7,-16 16,-16l75 0c9,0 16,7 16,16zm-31 436l0 -421 -44 0 0 420c0,15 2,27 5,38 3,10 8,19 14,26l1 0c6,8 13,13 22,16 9,4 20,6 32,6l28 0 0 -40 -19 0c-6,0 -12,-2 -17,-4 -5,-2 -9,-6 -13,-10 -3,-4 -5,-9 -7,-14l0 -1c-2,-5 -2,-10 -2,-16z"/>
  <path class="fil0" d="M16 554l0 -384 75 0 0 384 -75 0zm211 -293c-14,-16 -34,-24 -61,-24 -24,0 -42,6 -55,19 -13,14 -20,32 -20,55l-8 -74c12,-22 27,-40 46,-53 19,-13 40,-19 62,-19 35,0 63,10 85,30l-49 66zm328 293l0 -243c0,-25 -7,-45 -20,-59 -14,-14 -32,-21 -57,-21 -32,0 -60,9 -84,27l-55 -38c15,-17 34,-31 57,-41 24,-9 51,-14 80,-14 48,0 85,12 111,37 26,25 40,60 40,105l0 247 -72 0zm-94 5c-47,0 -82,-10 -106,-29 -23,-20 -35,-50 -35,-90 0,-38 11,-66 32,-85 22,-19 54,-28 97,-28l109 0 6 60 -114 0c-20,0 -34,5 -44,13 -10,9 -15,22 -15,40 0,20 7,35 20,44 13,9 32,14 58,14 29,0 50,-3 65,-10 14,-6 21,-15 21,-28l8 54c-7,10 -15,18 -25,25 -10,7 -21,12 -34,15 -13,3 -27,5 -43,5zm498 -5l0 -537 75 0 0 537 -75 0zm-96 5c-43,0 -75,-14 -98,-41 -23,-27 -35,-65 -35,-114l0 -84c0,-49 11,-88 34,-115 22,-27 54,-40 95,-40 23,0 43,6 62,18 19,11 34,28 46,50l-8 78c0,-16 -3,-30 -9,-42 -6,-11 -14,-20 -26,-26 -11,-6 -24,-9 -40,-9 -25,0 -44,7 -58,23 -14,15 -21,37 -21,64l0 83c0,27 7,49 21,64 14,15 33,22 58,22 16,0 29,-3 40,-9 12,-7 20,-16 26,-27 6,-12 9,-26 9,-43l5 81c-7,17 -19,33 -35,46 -17,14 -39,21 -66,21zm506 -5l0 -243c0,-25 -7,-45 -20,-59 -14,-14 -32,-21 -57,-21 -32,0 -60,9 -84,27l-55 -38c14,-17 34,-31 57,-41 24,-9 51,-14 80,-14 48,0 85,12 111,37 26,25 40,60 40,105l0 247 -72 0zm-94 5c-47,0 -82,-10 -106,-29 -23,-20 -35,-50 -35,-90 0,-38 11,-66 32,-85 22,-19 54,-28 97,-28l109 0 6 60 -114 0c-20,0 -34,5 -44,13 -10,9 -15,22 -15,40 0,20 7,35 20,44 13,9 32,14 58,14 29,0 50,-3 65,-10 14,-6 21,-15 21,-28l8 54c-7,10 -15,18 -25,25 -10,7 -21,12 -34,15 -13,3 -27,5 -43,5zm280 -5l0 -384 75 0 0 384 -75 0zm211 -293c-14,-16 -34,-24 -60,-24 -24,0 -43,6 -56,19 -13,14 -20,32 -20,55l-7 -74c11,-22 26,-40 45,-53 19,-13 40,-19 62,-19 36,0 64,10 85,30l-49 66zm459 293l0 -537 75 0 0 537 -75 0zm-96 5c-43,0 -75,-14 -98,-41 -23,-27 -35,-65 -35,-114l0 -84c0,-49 11,-88 34,-115 22,-27 54,-40 95,-40 23,0 43,6 62,18 19,11 34,28 46,50l-8 78c0,-16 -3,-30 -9,-42 -6,-11 -14,-20 -26,-26 -11,-6 -24,-9 -40,-9 -25,0 -44,7 -58,23 -14,15 -21,37 -21,64l0 83c0,27 7,49 21,64 14,15 33,22 58,22 16,0 29,-3 40,-9 12,-7 20,-16 26,-27 6,-12 9,-26 9,-43l5 81c-7,17 -19,33 -35,46 -17,14 -39,21 -66,21zm290 -468l0 -75 75 0 0 75 -75 0zm0 463l0 -384 75 0 0 384 -75 0zm318 155c-29,0 -55,-5 -77,-15 -23,-11 -41,-26 -53,-46l51 -46c20,28 46,42 78,42 29,0 51,-8 67,-23 15,-16 23,-39 23,-68l0 -383 76 0 0 372c0,53 -15,94 -43,124 -29,29 -70,43 -122,43zm-7 -150c-42,0 -75,-14 -98,-41 -23,-27 -35,-65 -35,-114l0 -84c0,-49 12,-88 34,-115 22,-27 54,-40 95,-40 23,0 44,6 62,18 19,11 35,28 46,50l-8 78c0,-16 -3,-30 -9,-42 -5,-11 -14,-20 -25,-26 -11,-6 -25,-9 -41,-9 -25,0 -44,7 -58,23 -13,15 -20,37 -20,64l0 83c0,27 7,49 20,64 14,15 33,22 58,22 16,0 30,-3 41,-9 11,-7 20,-16 25,-27 6,-12 9,-26 9,-43l5 81c-6,17 -18,33 -35,46 -17,14 -39,21 -66,21zm286 -468l0 -75 75 0 0 75 -75 0zm0 463l0 -384 75 0 0 384 -75 0zm290 0c-32,0 -55,-9 -69,-27 -14,-17 -21,-42 -21,-75l0 -393 75 0 0 394c0,9 2,16 6,21 4,5 9,8 16,8l36 0 0 72 -43 0zm-130 -316l0 -68 173 0 0 68 -173 0zm493 316l0 -243c0,-25 -7,-45 -20,-59 -14,-14 -32,-21 -57,-21 -32,0 -60,9 -84,27l-55 -38c15,-17 34,-31 57,-41 24,-9 51,-14 80,-14 48,0 85,12 111,37 26,25 40,60 40,105l0 247 -72 0zm-94 5c-47,0 -82,-10 -106,-29 -23,-20 -35,-50 -35,-90 0,-38 11,-66 32,-85 22,-19 54,-28 97,-28l109 0 6 60 -114 0c-20,0 -34,5 -44,13 -10,9 -15,22 -15,40 0,20 7,35 20,44 13,9 32,14 58,14 29,0 50,-3 65,-10 14,-6 21,-15 21,-28l8 54c-7,10 -15,18 -25,25 -10,7 -21,12 -34,15 -13,3 -27,5 -43,5zm355 -542l0 436c0,9 3,16 7,21 4,5 9,8 17,8l35 0 0 72 -44 0c-28,0 -50,-9 -66,-27 -16,-18 -24,-43 -24,-75l0 -435 75 0z"/>
 </g>
</svg>
