<?xml version="1.0" encoding="UTF-8"?>
<!DOCTYPE svg PUBLIC "-//W3C//DTD SVG 1.1//EN" "http://www.w3.org/Graphics/SVG/1.1/DTD/svg11.dtd">
<!-- Creator: CorelDRAW X8 -->
<svg xmlns="http://www.w3.org/2000/svg" xml:space="preserve" width="44.6173mm" height="44.0886mm" version="1.1" style="shape-rendering:geometricPrecision; text-rendering:geometricPrecision; image-rendering:optimizeQuality; fill-rule:evenodd; clip-rule:evenodd"
viewBox="0 0 4482 4429"
 xmlns:xlink="http://www.w3.org/1999/xlink">
 <defs>
  <style type="text/css">
   <![CDATA[
    .fil0 {fill:#005EC4;fill-rule:nonzero}
   ]]>
  </style>
 </defs>
 <g id="__x0023_Layer_x0020_1">
  <metadata id="CorelCorpID_0Corel-Layer"/>
  <path class="fil0" d="M2980 2409c0,265 -107,506 -281,680 -174,173 -414,281 -679,281 -266,0 -506,-108 -680,-281 -174,-174 -281,-415 -281,-680 0,-265 107,-505 281,-679 174,-174 414,-282 680,-282 265,0 505,108 679,282l0 0c174,174 281,414 281,679zm-369 592c152,-152 245,-361 245,-592 0,-231 -93,-440 -244,-592l-1 0c-151,-151 -360,-245 -591,-245 -231,0 -441,94 -592,245 -151,152 -245,361 -245,592 0,231 94,440 245,592 151,151 361,245 592,245 231,0 440,-94 591,-245z"/>
  <path class="fil0" d="M3518 2439c0,414 -168,788 -439,1059 -271,271 -646,439 -1059,439 -414,0 -789,-168 -1060,-439 -271,-271 -439,-646 -439,-1059 0,-414 168,-789 439,-1060 271,-271 646,-439 1060,-439 413,0 788,168 1059,439 271,271 439,646 439,1060zm-526 972c248,-249 402,-593 402,-972 0,-380 -154,-723 -402,-972 -249,-249 -593,-403 -972,-403 -380,0 -723,154 -972,403 -249,249 -403,592 -403,972 0,379 154,723 403,972 249,248 592,402 972,402 379,0 723,-154 972,-402z"/>
  <path class="fil0" d="M4039 2409c0,558 -226,1063 -591,1428 -366,366 -871,592 -1428,592 -558,0 -1063,-226 -1428,-592 -366,-365 -592,-870 -592,-1428 0,-558 226,-1063 592,-1428 365,-366 870,-592 1428,-592 557,0 1062,226 1428,592 365,365 591,870 591,1428zm-679 1341c343,-344 555,-817 555,-1341 0,-523 -212,-997 -555,-1340 -343,-343 -817,-556 -1340,-556 -524,0 -998,213 -1341,556 -343,343 -555,817 -555,1340 0,524 212,997 555,1340 343,344 817,556 1341,556 523,0 997,-212 1340,-555z"/>
  <path class="fil0" d="M4482 1961c-181,-988 -865,-1709 -1826,-1961l11 304c782,238 1335,837 1527,1623l288 34z"/>
  <path class="fil0" d="M2398 2409c0,209 -170,378 -378,378 -209,0 -378,-169 -378,-378 0,-209 169,-378 378,-378 208,0 378,169 378,378z"/>
  <path class="fil0" d="M3438 2158c-131,-531 -538,-964 -1058,-1122l9 279c426,148 656,457 748,808l301 35z"/>
  <path class="fil0" d="M2527 795c574,193 980,632 1126,1226l300 37c-150,-767 -683,-1342 -1427,-1552l1 289z"/>
 </g>
</svg>
