<?xml version="1.0" standalone="no"?>
<!DOCTYPE svg PUBLIC "-//W3C//DTD SVG 20010904//EN"
 "http://www.w3.org/TR/2001/REC-SVG-20010904/DTD/svg10.dtd">
<svg version="1.0" xmlns="http://www.w3.org/2000/svg"
 width="700.000000pt" height="700.000000pt" viewBox="0 0 700.000000 700.000000"
 preserveAspectRatio="xMidYMid meet">
<metadata>
Created by potrace 1.11, written by Peter Selinger 2001-2013
</metadata>
<g transform="translate(0.000000,700.000000) scale(0.100000,-0.100000)"
fill="#000000" stroke="none">
<path d="M3468 6945 c-2 -1 -64 -5 -138 -9 -74 -3 -148 -8 -165 -11 -16 -2
-77 -11 -135 -19 -132 -20 -146 -22 -250 -47 -47 -11 -92 -22 -100 -24 -189
-44 -450 -142 -674 -253 -509 -253 -955 -636 -1302 -1117 -212 -295 -393 -659
-498 -1006 -37 -124 -81 -299 -90 -364 -4 -22 -10 -62 -16 -90 -46 -247 -54
-614 -19 -920 59 -525 246 -1043 536 -1489 227 -349 511 -650 850 -903 61 -46
116 -83 122 -83 6 0 11 -4 11 -8 0 -5 19 -19 43 -32 23 -12 49 -28 57 -35 45
-37 315 -177 465 -241 193 -83 482 -175 655 -208 14 -3 48 -9 75 -15 28 -5 88
-15 135 -21 47 -6 96 -13 110 -15 60 -11 258 -20 405 -19 400 1 775 66 1150
201 174 62 442 187 556 258 21 14 41 25 44 25 8 0 135 84 235 155 616 436
1092 1095 1310 1816 36 122 80 301 94 389 43 264 51 356 51 615 0 310 -20 494
-84 768 -33 140 -107 379 -140 452 -5 11 -26 61 -47 110 -77 186 -192 398
-312 575 -410 606 -944 1042 -1619 1321 -13 5 -33 13 -45 19 -13 5 -85 30
-161 55 -200 66 -454 124 -612 141 -33 3 -62 7 -65 9 -11 7 -425 26 -432 20z"/>
</g>
</svg>
