<?xml version="1.0" encoding="UTF-8" standalone="no"?><!DOCTYPE svg PUBLIC "-//W3C//DTD SVG 1.1//EN" "http://www.w3.org/Graphics/SVG/1.1/DTD/svg11.dtd"><svg width="100%" height="100%" viewBox="0 0 81 81" version="1.1" xmlns="http://www.w3.org/2000/svg" xmlns:xlink="http://www.w3.org/1999/xlink" xml:space="preserve" style="fill-rule:evenodd;clip-rule:evenodd;stroke-linejoin:round;stroke-miterlimit:1.41421;"><path d="M80.877,40.741c0,22.124 -17.997,40.091 -40.106,40.091c-22.11,0 -40.107,-17.967 -40.107,-40.091c0,-21.435 17.997,-40.092 40.107,-40.092c22.109,0 40.106,18.657 40.106,40.092" style="fill:#124e96;fill-rule:nonzero;"/><path d="M40.771,0.649c-3.062,0 -6.004,0.42 -8.856,1.096c17.846,4.188 31.235,20.518 31.235,38.981c0,19.092 -13.389,35.018 -31.235,39.07c2.852,0.646 5.794,1.051 8.856,1.051c22.124,0 40.091,-17.982 40.091,-40.121c0,-21.405 -17.967,-40.077 -40.091,-40.077" style="fill:#094396;fill-rule:nonzero;"/></svg>