<?xml version="1.0" encoding="UTF-8" standalone="no"?><!DOCTYPE svg PUBLIC "-//W3C//DTD SVG 1.1//EN" "http://www.w3.org/Graphics/SVG/1.1/DTD/svg11.dtd"><svg width="100%" height="100%" viewBox="0 0 256 49" version="1.1" xmlns="http://www.w3.org/2000/svg" xmlns:xlink="http://www.w3.org/1999/xlink" xml:space="preserve" style="fill-rule:evenodd;clip-rule:evenodd;stroke-linejoin:round;stroke-miterlimit:1.41421;"><g><path d="M0.571,47.954l7.219,0l0,-4.413c0.982,1.168 4.702,5.258 11.791,5.258c10.459,0 17.888,-7.337 17.888,-17.741c0,-10.469 -6.939,-17.871 -17.396,-17.871c-6.949,0 -10.88,3.895 -11.863,5.388l0,-17.608l-7.639,0l0,46.987Zm7.359,-16.831c0,-7.412 4.843,-11.639 10.949,-11.639c6.388,0 10.88,4.812 10.88,11.639c0,6.958 -4.703,11.444 -10.95,11.444c-6.738,0 -10.879,-5.202 -10.879,-11.444Z" style="fill:#fff;fill-rule:nonzero;"/><rect x="43.792" y="0.967" width="7.639" height="46.987" style="fill:#fff;fill-rule:nonzero;"/><path d="M72.484,48.799c4.914,0 8.705,-2.532 10.32,-5.258l0,4.413l7.499,0l0,-33.922l-7.64,0l0,20.475c0,4.68 -3.159,7.93 -8.003,7.93c-4.212,0 -7.371,-2.73 -7.371,-7.41l0,-20.995l-7.569,0l0,20.41c0,7.41 3.293,14.357 12.764,14.357Z" style="fill:#fff;fill-rule:nonzero;"/><path d="M96.416,31.122c0,10.274 7.569,17.677 19.01,17.677c8.705,0 13.54,-4.609 15.293,-7.403l-5.047,-3.513c-1.401,1.887 -4.56,4.749 -10.105,4.749c-6.528,0 -11.231,-3.903 -11.372,-9.953l27.575,0c0.07,-0.584 0.07,-1.168 0.07,-1.752c0,-10.662 -6.518,-17.74 -17.607,-17.74c-10.038,0 -17.817,7.403 -17.817,17.935Zm8.06,-3.31c0.491,-5.335 4.563,-8.718 9.827,-8.718c5.265,0 9.477,3.123 9.757,8.718l-19.584,0Z" style="fill:#fff;fill-rule:nonzero;"/><path d="M172.676,0.967l-7.639,0l0,17.608c-0.983,-1.493 -4.914,-5.388 -11.863,-5.388c-10.458,0 -17.396,7.402 -17.396,17.871c0,10.404 7.429,17.741 17.887,17.741c7.09,0 10.81,-4.09 11.792,-5.258l0,4.413l7.219,0l0,-46.987Zm-7.359,30.156c0,6.242 -4.141,11.444 -10.88,11.444c-6.247,0 -10.95,-4.486 -10.95,-11.444c0,-6.827 4.493,-11.639 10.88,-11.639c6.107,0 10.95,4.227 10.95,11.639Z" style="fill:#fff;fill-rule:nonzero;"/><path d="M186.709,31.058c0,-6.632 4.773,-11.574 11.651,-11.574c6.809,0 11.792,4.877 11.792,11.509c0,6.632 -4.983,11.509 -11.792,11.509c-6.808,0 -11.651,-4.746 -11.651,-11.444Zm-7.71,0c0,10.274 8.131,17.741 19.361,17.741c11.161,0 19.432,-7.597 19.432,-17.806c0,-10.208 -8.131,-17.806 -19.432,-17.806c-11.02,0 -19.361,7.598 -19.361,17.871Z" style="fill:#fff;fill-rule:nonzero;"/><path d="M224.747,14.032l-4.07,0l0,5.842l4.07,0l0,14.695c0,8.322 2.663,13.84 11.568,13.84c2.386,0 3.719,-0.26 3.719,-0.26l0,-6.102c0,0 -0.842,0.065 -1.473,0.065c-4.07,0 -6.245,-1.17 -6.245,-6.437l0,-15.801l7.437,0l0,-5.842l-7.437,0l0,-7.085l-7.569,0l0,7.085Z" style="fill:#fff;fill-rule:nonzero;"/><path d="M244.884,44.253c0,2.468 2.243,4.546 4.977,4.546c2.734,0 4.977,-2.078 4.977,-4.546c0,-2.533 -2.243,-4.611 -4.977,-4.611c-2.734,0 -4.977,2.078 -4.977,4.611Z" style="fill:#fff;fill-rule:nonzero;"/></g></svg>